<?xml version="1.0" encoding="utf-8" standalone="no"?>
<!DOCTYPE svg PUBLIC "-//W3C//DTD SVG 1.1//EN"
  "http://www.w3.org/Graphics/SVG/1.1/DTD/svg11.dtd">
<svg xmlns:xlink="http://www.w3.org/1999/xlink" width="1209.6pt" height="696.24pt" viewBox="0 0 1209.6 696.24" xmlns="http://www.w3.org/2000/svg" version="1.1">
 <metadata>
  <rdf:RDF xmlns:dc="http://purl.org/dc/elements/1.1/" xmlns:cc="http://creativecommons.org/ns#" xmlns:rdf="http://www.w3.org/1999/02/22-rdf-syntax-ns#">
   <cc:Work>
    <dc:type rdf:resource="http://purl.org/dc/dcmitype/StillImage"/>
    <dc:date>2025-03-07T14:15:09.800019</dc:date>
    <dc:format>image/svg+xml</dc:format>
    <dc:creator>
     <cc:Agent>
      <dc:title>Matplotlib v3.6.3, https://matplotlib.org/</dc:title>
     </cc:Agent>
    </dc:creator>
   </cc:Work>
  </rdf:RDF>
 </metadata>
 <defs>
  <style type="text/css">*{stroke-linejoin: round; stroke-linecap: butt}</style>
 </defs>
 <g id="figure_1">
  <g id="patch_1">
   <path d="M 0 696.24 
L 1209.6 696.24 
L 1209.6 0 
L 0 0 
z
" style="fill: #ffffff"/>
  </g>
  <g id="axes_1">
   <g id="patch_2">
    <path d="M 151.2 619.6536 
L 1088.64 619.6536 
L 1088.64 83.5488 
L 151.2 83.5488 
z
" style="fill: #ffffff"/>
   </g>
   <g id="matplotlib.axis_1">
    <g id="xtick_1">
     <g id="line2d_1">
      <defs>
       <path id="m62089e49c6" d="M 0 0 
L 0 3.5 
" style="stroke: #000000; stroke-width: 0.8"/>
      </defs>
      <g>
       <use xlink:href="#m62089e49c6" x="191.204561" y="619.6536" style="stroke: #000000; stroke-width: 0.8"/>
      </g>
     </g>
     <g id="text_1">
      <!-- 0 -->
      <g transform="translate(188.023311 634.252038) scale(0.1 -0.1)">
       <defs>
        <path id="DejaVuSans-30" d="M 2034 4250 
Q 1547 4250 1301 3770 
Q 1056 3291 1056 2328 
Q 1056 1369 1301 889 
Q 1547 409 2034 409 
Q 2525 409 2770 889 
Q 3016 1369 3016 2328 
Q 3016 3291 2770 3770 
Q 2525 4250 2034 4250 
z
M 2034 4750 
Q 2819 4750 3233 4129 
Q 3647 3509 3647 2328 
Q 3647 1150 3233 529 
Q 2819 -91 2034 -91 
Q 1250 -91 836 529 
Q 422 1150 422 2328 
Q 422 3509 836 4129 
Q 1250 4750 2034 4750 
z
" transform="scale(0.015625)"/>
       </defs>
       <use xlink:href="#DejaVuSans-30"/>
      </g>
     </g>
    </g>
    <g id="xtick_2">
     <g id="line2d_2">
      <g>
       <use xlink:href="#m62089e49c6" x="327.733093" y="619.6536" style="stroke: #000000; stroke-width: 0.8"/>
      </g>
     </g>
     <g id="text_2">
      <!-- 100 -->
      <g transform="translate(318.189343 634.252038) scale(0.1 -0.1)">
       <defs>
        <path id="DejaVuSans-31" d="M 794 531 
L 1825 531 
L 1825 4091 
L 703 3866 
L 703 4441 
L 1819 4666 
L 2450 4666 
L 2450 531 
L 3481 531 
L 3481 0 
L 794 0 
L 794 531 
z
" transform="scale(0.015625)"/>
       </defs>
       <use xlink:href="#DejaVuSans-31"/>
       <use xlink:href="#DejaVuSans-30" x="63.623047"/>
       <use xlink:href="#DejaVuSans-30" x="127.246094"/>
      </g>
     </g>
    </g>
    <g id="xtick_3">
     <g id="line2d_3">
      <g>
       <use xlink:href="#m62089e49c6" x="464.261626" y="619.6536" style="stroke: #000000; stroke-width: 0.8"/>
      </g>
     </g>
     <g id="text_3">
      <!-- 200 -->
      <g transform="translate(454.717876 634.252038) scale(0.1 -0.1)">
       <defs>
        <path id="DejaVuSans-32" d="M 1228 531 
L 3431 531 
L 3431 0 
L 469 0 
L 469 531 
Q 828 903 1448 1529 
Q 2069 2156 2228 2338 
Q 2531 2678 2651 2914 
Q 2772 3150 2772 3378 
Q 2772 3750 2511 3984 
Q 2250 4219 1831 4219 
Q 1534 4219 1204 4116 
Q 875 4013 500 3803 
L 500 4441 
Q 881 4594 1212 4672 
Q 1544 4750 1819 4750 
Q 2544 4750 2975 4387 
Q 3406 4025 3406 3419 
Q 3406 3131 3298 2873 
Q 3191 2616 2906 2266 
Q 2828 2175 2409 1742 
Q 1991 1309 1228 531 
z
" transform="scale(0.015625)"/>
       </defs>
       <use xlink:href="#DejaVuSans-32"/>
       <use xlink:href="#DejaVuSans-30" x="63.623047"/>
       <use xlink:href="#DejaVuSans-30" x="127.246094"/>
      </g>
     </g>
    </g>
    <g id="xtick_4">
     <g id="line2d_4">
      <g>
       <use xlink:href="#m62089e49c6" x="600.790159" y="619.6536" style="stroke: #000000; stroke-width: 0.8"/>
      </g>
     </g>
     <g id="text_4">
      <!-- 300 -->
      <g transform="translate(591.246409 634.252038) scale(0.1 -0.1)">
       <defs>
        <path id="DejaVuSans-33" d="M 2597 2516 
Q 3050 2419 3304 2112 
Q 3559 1806 3559 1356 
Q 3559 666 3084 287 
Q 2609 -91 1734 -91 
Q 1441 -91 1130 -33 
Q 819 25 488 141 
L 488 750 
Q 750 597 1062 519 
Q 1375 441 1716 441 
Q 2309 441 2620 675 
Q 2931 909 2931 1356 
Q 2931 1769 2642 2001 
Q 2353 2234 1838 2234 
L 1294 2234 
L 1294 2753 
L 1863 2753 
Q 2328 2753 2575 2939 
Q 2822 3125 2822 3475 
Q 2822 3834 2567 4026 
Q 2313 4219 1838 4219 
Q 1578 4219 1281 4162 
Q 984 4106 628 3988 
L 628 4550 
Q 988 4650 1302 4700 
Q 1616 4750 1894 4750 
Q 2613 4750 3031 4423 
Q 3450 4097 3450 3541 
Q 3450 3153 3228 2886 
Q 3006 2619 2597 2516 
z
" transform="scale(0.015625)"/>
       </defs>
       <use xlink:href="#DejaVuSans-33"/>
       <use xlink:href="#DejaVuSans-30" x="63.623047"/>
       <use xlink:href="#DejaVuSans-30" x="127.246094"/>
      </g>
     </g>
    </g>
    <g id="xtick_5">
     <g id="line2d_5">
      <g>
       <use xlink:href="#m62089e49c6" x="737.318692" y="619.6536" style="stroke: #000000; stroke-width: 0.8"/>
      </g>
     </g>
     <g id="text_5">
      <!-- 400 -->
      <g transform="translate(727.774942 634.252038) scale(0.1 -0.1)">
       <defs>
        <path id="DejaVuSans-34" d="M 2419 4116 
L 825 1625 
L 2419 1625 
L 2419 4116 
z
M 2253 4666 
L 3047 4666 
L 3047 1625 
L 3713 1625 
L 3713 1100 
L 3047 1100 
L 3047 0 
L 2419 0 
L 2419 1100 
L 313 1100 
L 313 1709 
L 2253 4666 
z
" transform="scale(0.015625)"/>
       </defs>
       <use xlink:href="#DejaVuSans-34"/>
       <use xlink:href="#DejaVuSans-30" x="63.623047"/>
       <use xlink:href="#DejaVuSans-30" x="127.246094"/>
      </g>
     </g>
    </g>
    <g id="xtick_6">
     <g id="line2d_6">
      <g>
       <use xlink:href="#m62089e49c6" x="873.847225" y="619.6536" style="stroke: #000000; stroke-width: 0.8"/>
      </g>
     </g>
     <g id="text_6">
      <!-- 500 -->
      <g transform="translate(864.303475 634.252038) scale(0.1 -0.1)">
       <defs>
        <path id="DejaVuSans-35" d="M 691 4666 
L 3169 4666 
L 3169 4134 
L 1269 4134 
L 1269 2991 
Q 1406 3038 1543 3061 
Q 1681 3084 1819 3084 
Q 2600 3084 3056 2656 
Q 3513 2228 3513 1497 
Q 3513 744 3044 326 
Q 2575 -91 1722 -91 
Q 1428 -91 1123 -41 
Q 819 9 494 109 
L 494 744 
Q 775 591 1075 516 
Q 1375 441 1709 441 
Q 2250 441 2565 725 
Q 2881 1009 2881 1497 
Q 2881 1984 2565 2268 
Q 2250 2553 1709 2553 
Q 1456 2553 1204 2497 
Q 953 2441 691 2322 
L 691 4666 
z
" transform="scale(0.015625)"/>
       </defs>
       <use xlink:href="#DejaVuSans-35"/>
       <use xlink:href="#DejaVuSans-30" x="63.623047"/>
       <use xlink:href="#DejaVuSans-30" x="127.246094"/>
      </g>
     </g>
    </g>
    <g id="xtick_7">
     <g id="line2d_7">
      <g>
       <use xlink:href="#m62089e49c6" x="1010.375758" y="619.6536" style="stroke: #000000; stroke-width: 0.8"/>
      </g>
     </g>
     <g id="text_7">
      <!-- 600 -->
      <g transform="translate(1000.832008 634.252038) scale(0.1 -0.1)">
       <defs>
        <path id="DejaVuSans-36" d="M 2113 2584 
Q 1688 2584 1439 2293 
Q 1191 2003 1191 1497 
Q 1191 994 1439 701 
Q 1688 409 2113 409 
Q 2538 409 2786 701 
Q 3034 994 3034 1497 
Q 3034 2003 2786 2293 
Q 2538 2584 2113 2584 
z
M 3366 4563 
L 3366 3988 
Q 3128 4100 2886 4159 
Q 2644 4219 2406 4219 
Q 1781 4219 1451 3797 
Q 1122 3375 1075 2522 
Q 1259 2794 1537 2939 
Q 1816 3084 2150 3084 
Q 2853 3084 3261 2657 
Q 3669 2231 3669 1497 
Q 3669 778 3244 343 
Q 2819 -91 2113 -91 
Q 1303 -91 875 529 
Q 447 1150 447 2328 
Q 447 3434 972 4092 
Q 1497 4750 2381 4750 
Q 2619 4750 2861 4703 
Q 3103 4656 3366 4563 
z
" transform="scale(0.015625)"/>
       </defs>
       <use xlink:href="#DejaVuSans-36"/>
       <use xlink:href="#DejaVuSans-30" x="63.623047"/>
       <use xlink:href="#DejaVuSans-30" x="127.246094"/>
      </g>
     </g>
    </g>
    <g id="text_8">
     <!-- Solve Time (sec) -->
     <g transform="translate(578.517656 647.930163) scale(0.1 -0.1)">
      <defs>
       <path id="DejaVuSans-53" d="M 3425 4513 
L 3425 3897 
Q 3066 4069 2747 4153 
Q 2428 4238 2131 4238 
Q 1616 4238 1336 4038 
Q 1056 3838 1056 3469 
Q 1056 3159 1242 3001 
Q 1428 2844 1947 2747 
L 2328 2669 
Q 3034 2534 3370 2195 
Q 3706 1856 3706 1288 
Q 3706 609 3251 259 
Q 2797 -91 1919 -91 
Q 1588 -91 1214 -16 
Q 841 59 441 206 
L 441 856 
Q 825 641 1194 531 
Q 1563 422 1919 422 
Q 2459 422 2753 634 
Q 3047 847 3047 1241 
Q 3047 1584 2836 1778 
Q 2625 1972 2144 2069 
L 1759 2144 
Q 1053 2284 737 2584 
Q 422 2884 422 3419 
Q 422 4038 858 4394 
Q 1294 4750 2059 4750 
Q 2388 4750 2728 4690 
Q 3069 4631 3425 4513 
z
" transform="scale(0.015625)"/>
       <path id="DejaVuSans-6f" d="M 1959 3097 
Q 1497 3097 1228 2736 
Q 959 2375 959 1747 
Q 959 1119 1226 758 
Q 1494 397 1959 397 
Q 2419 397 2687 759 
Q 2956 1122 2956 1747 
Q 2956 2369 2687 2733 
Q 2419 3097 1959 3097 
z
M 1959 3584 
Q 2709 3584 3137 3096 
Q 3566 2609 3566 1747 
Q 3566 888 3137 398 
Q 2709 -91 1959 -91 
Q 1206 -91 779 398 
Q 353 888 353 1747 
Q 353 2609 779 3096 
Q 1206 3584 1959 3584 
z
" transform="scale(0.015625)"/>
       <path id="DejaVuSans-6c" d="M 603 4863 
L 1178 4863 
L 1178 0 
L 603 0 
L 603 4863 
z
" transform="scale(0.015625)"/>
       <path id="DejaVuSans-76" d="M 191 3500 
L 800 3500 
L 1894 563 
L 2988 3500 
L 3597 3500 
L 2284 0 
L 1503 0 
L 191 3500 
z
" transform="scale(0.015625)"/>
       <path id="DejaVuSans-65" d="M 3597 1894 
L 3597 1613 
L 953 1613 
Q 991 1019 1311 708 
Q 1631 397 2203 397 
Q 2534 397 2845 478 
Q 3156 559 3463 722 
L 3463 178 
Q 3153 47 2828 -22 
Q 2503 -91 2169 -91 
Q 1331 -91 842 396 
Q 353 884 353 1716 
Q 353 2575 817 3079 
Q 1281 3584 2069 3584 
Q 2775 3584 3186 3129 
Q 3597 2675 3597 1894 
z
M 3022 2063 
Q 3016 2534 2758 2815 
Q 2500 3097 2075 3097 
Q 1594 3097 1305 2825 
Q 1016 2553 972 2059 
L 3022 2063 
z
" transform="scale(0.015625)"/>
       <path id="DejaVuSans-20" transform="scale(0.015625)"/>
       <path id="DejaVuSans-54" d="M -19 4666 
L 3928 4666 
L 3928 4134 
L 2272 4134 
L 2272 0 
L 1638 0 
L 1638 4134 
L -19 4134 
L -19 4666 
z
" transform="scale(0.015625)"/>
       <path id="DejaVuSans-69" d="M 603 3500 
L 1178 3500 
L 1178 0 
L 603 0 
L 603 3500 
z
M 603 4863 
L 1178 4863 
L 1178 4134 
L 603 4134 
L 603 4863 
z
" transform="scale(0.015625)"/>
       <path id="DejaVuSans-6d" d="M 3328 2828 
Q 3544 3216 3844 3400 
Q 4144 3584 4550 3584 
Q 5097 3584 5394 3201 
Q 5691 2819 5691 2113 
L 5691 0 
L 5113 0 
L 5113 2094 
Q 5113 2597 4934 2840 
Q 4756 3084 4391 3084 
Q 3944 3084 3684 2787 
Q 3425 2491 3425 1978 
L 3425 0 
L 2847 0 
L 2847 2094 
Q 2847 2600 2669 2842 
Q 2491 3084 2119 3084 
Q 1678 3084 1418 2786 
Q 1159 2488 1159 1978 
L 1159 0 
L 581 0 
L 581 3500 
L 1159 3500 
L 1159 2956 
Q 1356 3278 1631 3431 
Q 1906 3584 2284 3584 
Q 2666 3584 2933 3390 
Q 3200 3197 3328 2828 
z
" transform="scale(0.015625)"/>
       <path id="DejaVuSans-28" d="M 1984 4856 
Q 1566 4138 1362 3434 
Q 1159 2731 1159 2009 
Q 1159 1288 1364 580 
Q 1569 -128 1984 -844 
L 1484 -844 
Q 1016 -109 783 600 
Q 550 1309 550 2009 
Q 550 2706 781 3412 
Q 1013 4119 1484 4856 
L 1984 4856 
z
" transform="scale(0.015625)"/>
       <path id="DejaVuSans-73" d="M 2834 3397 
L 2834 2853 
Q 2591 2978 2328 3040 
Q 2066 3103 1784 3103 
Q 1356 3103 1142 2972 
Q 928 2841 928 2578 
Q 928 2378 1081 2264 
Q 1234 2150 1697 2047 
L 1894 2003 
Q 2506 1872 2764 1633 
Q 3022 1394 3022 966 
Q 3022 478 2636 193 
Q 2250 -91 1575 -91 
Q 1294 -91 989 -36 
Q 684 19 347 128 
L 347 722 
Q 666 556 975 473 
Q 1284 391 1588 391 
Q 1994 391 2212 530 
Q 2431 669 2431 922 
Q 2431 1156 2273 1281 
Q 2116 1406 1581 1522 
L 1381 1569 
Q 847 1681 609 1914 
Q 372 2147 372 2553 
Q 372 3047 722 3315 
Q 1072 3584 1716 3584 
Q 2034 3584 2315 3537 
Q 2597 3491 2834 3397 
z
" transform="scale(0.015625)"/>
       <path id="DejaVuSans-63" d="M 3122 3366 
L 3122 2828 
Q 2878 2963 2633 3030 
Q 2388 3097 2138 3097 
Q 1578 3097 1268 2742 
Q 959 2388 959 1747 
Q 959 1106 1268 751 
Q 1578 397 2138 397 
Q 2388 397 2633 464 
Q 2878 531 3122 666 
L 3122 134 
Q 2881 22 2623 -34 
Q 2366 -91 2075 -91 
Q 1284 -91 818 406 
Q 353 903 353 1747 
Q 353 2603 823 3093 
Q 1294 3584 2113 3584 
Q 2378 3584 2631 3529 
Q 2884 3475 3122 3366 
z
" transform="scale(0.015625)"/>
       <path id="DejaVuSans-29" d="M 513 4856 
L 1013 4856 
Q 1481 4119 1714 3412 
Q 1947 2706 1947 2009 
Q 1947 1309 1714 600 
Q 1481 -109 1013 -844 
L 513 -844 
Q 928 -128 1133 580 
Q 1338 1288 1338 2009 
Q 1338 2731 1133 3434 
Q 928 4138 513 4856 
z
" transform="scale(0.015625)"/>
      </defs>
      <use xlink:href="#DejaVuSans-53"/>
      <use xlink:href="#DejaVuSans-6f" x="63.476562"/>
      <use xlink:href="#DejaVuSans-6c" x="124.658203"/>
      <use xlink:href="#DejaVuSans-76" x="152.441406"/>
      <use xlink:href="#DejaVuSans-65" x="211.621094"/>
      <use xlink:href="#DejaVuSans-20" x="273.144531"/>
      <use xlink:href="#DejaVuSans-54" x="304.931641"/>
      <use xlink:href="#DejaVuSans-69" x="362.890625"/>
      <use xlink:href="#DejaVuSans-6d" x="390.673828"/>
      <use xlink:href="#DejaVuSans-65" x="488.085938"/>
      <use xlink:href="#DejaVuSans-20" x="549.609375"/>
      <use xlink:href="#DejaVuSans-28" x="581.396484"/>
      <use xlink:href="#DejaVuSans-73" x="620.410156"/>
      <use xlink:href="#DejaVuSans-65" x="672.509766"/>
      <use xlink:href="#DejaVuSans-63" x="734.033203"/>
      <use xlink:href="#DejaVuSans-29" x="789.013672"/>
     </g>
    </g>
   </g>
   <g id="matplotlib.axis_2">
    <g id="ytick_1">
     <g id="line2d_8">
      <defs>
       <path id="m068b796579" d="M 0 0 
L -3.5 0 
" style="stroke: #000000; stroke-width: 0.8"/>
      </defs>
      <g>
       <use xlink:href="#m068b796579" x="151.2" y="578.850068" style="stroke: #000000; stroke-width: 0.8"/>
      </g>
     </g>
     <g id="text_9">
      <!-- 147 -->
      <g transform="translate(125.1125 582.649287) scale(0.1 -0.1)">
       <defs>
        <path id="DejaVuSans-37" d="M 525 4666 
L 3525 4666 
L 3525 4397 
L 1831 0 
L 1172 0 
L 2766 4134 
L 525 4134 
L 525 4666 
z
" transform="scale(0.015625)"/>
       </defs>
       <use xlink:href="#DejaVuSans-31"/>
       <use xlink:href="#DejaVuSans-34" x="63.623047"/>
       <use xlink:href="#DejaVuSans-37" x="127.246094"/>
      </g>
     </g>
    </g>
    <g id="ytick_2">
     <g id="line2d_9">
      <g>
       <use xlink:href="#m068b796579" x="151.2" y="488.437132" style="stroke: #000000; stroke-width: 0.8"/>
      </g>
     </g>
     <g id="text_10">
      <!-- 148 -->
      <g transform="translate(125.1125 492.236351) scale(0.1 -0.1)">
       <defs>
        <path id="DejaVuSans-38" d="M 2034 2216 
Q 1584 2216 1326 1975 
Q 1069 1734 1069 1313 
Q 1069 891 1326 650 
Q 1584 409 2034 409 
Q 2484 409 2743 651 
Q 3003 894 3003 1313 
Q 3003 1734 2745 1975 
Q 2488 2216 2034 2216 
z
M 1403 2484 
Q 997 2584 770 2862 
Q 544 3141 544 3541 
Q 544 4100 942 4425 
Q 1341 4750 2034 4750 
Q 2731 4750 3128 4425 
Q 3525 4100 3525 3541 
Q 3525 3141 3298 2862 
Q 3072 2584 2669 2484 
Q 3125 2378 3379 2068 
Q 3634 1759 3634 1313 
Q 3634 634 3220 271 
Q 2806 -91 2034 -91 
Q 1263 -91 848 271 
Q 434 634 434 1313 
Q 434 1759 690 2068 
Q 947 2378 1403 2484 
z
M 1172 3481 
Q 1172 3119 1398 2916 
Q 1625 2713 2034 2713 
Q 2441 2713 2670 2916 
Q 2900 3119 2900 3481 
Q 2900 3844 2670 4047 
Q 2441 4250 2034 4250 
Q 1625 4250 1398 4047 
Q 1172 3844 1172 3481 
z
" transform="scale(0.015625)"/>
       </defs>
       <use xlink:href="#DejaVuSans-31"/>
       <use xlink:href="#DejaVuSans-34" x="63.623047"/>
       <use xlink:href="#DejaVuSans-38" x="127.246094"/>
      </g>
     </g>
    </g>
    <g id="ytick_3">
     <g id="line2d_10">
      <g>
       <use xlink:href="#m068b796579" x="151.2" y="398.024197" style="stroke: #000000; stroke-width: 0.8"/>
      </g>
     </g>
     <g id="text_11">
      <!-- 149 -->
      <g transform="translate(125.1125 401.823416) scale(0.1 -0.1)">
       <defs>
        <path id="DejaVuSans-39" d="M 703 97 
L 703 672 
Q 941 559 1184 500 
Q 1428 441 1663 441 
Q 2288 441 2617 861 
Q 2947 1281 2994 2138 
Q 2813 1869 2534 1725 
Q 2256 1581 1919 1581 
Q 1219 1581 811 2004 
Q 403 2428 403 3163 
Q 403 3881 828 4315 
Q 1253 4750 1959 4750 
Q 2769 4750 3195 4129 
Q 3622 3509 3622 2328 
Q 3622 1225 3098 567 
Q 2575 -91 1691 -91 
Q 1453 -91 1209 -44 
Q 966 3 703 97 
z
M 1959 2075 
Q 2384 2075 2632 2365 
Q 2881 2656 2881 3163 
Q 2881 3666 2632 3958 
Q 2384 4250 1959 4250 
Q 1534 4250 1286 3958 
Q 1038 3666 1038 3163 
Q 1038 2656 1286 2365 
Q 1534 2075 1959 2075 
z
" transform="scale(0.015625)"/>
       </defs>
       <use xlink:href="#DejaVuSans-31"/>
       <use xlink:href="#DejaVuSans-34" x="63.623047"/>
       <use xlink:href="#DejaVuSans-39" x="127.246094"/>
      </g>
     </g>
    </g>
    <g id="ytick_4">
     <g id="line2d_11">
      <g>
       <use xlink:href="#m068b796579" x="151.2" y="307.611261" style="stroke: #000000; stroke-width: 0.8"/>
      </g>
     </g>
     <g id="text_12">
      <!-- 150 -->
      <g transform="translate(125.1125 311.41048) scale(0.1 -0.1)">
       <use xlink:href="#DejaVuSans-31"/>
       <use xlink:href="#DejaVuSans-35" x="63.623047"/>
       <use xlink:href="#DejaVuSans-30" x="127.246094"/>
      </g>
     </g>
    </g>
    <g id="ytick_5">
     <g id="line2d_12">
      <g>
       <use xlink:href="#m068b796579" x="151.2" y="217.198326" style="stroke: #000000; stroke-width: 0.8"/>
      </g>
     </g>
     <g id="text_13">
      <!-- 151 -->
      <g transform="translate(125.1125 220.997544) scale(0.1 -0.1)">
       <use xlink:href="#DejaVuSans-31"/>
       <use xlink:href="#DejaVuSans-35" x="63.623047"/>
       <use xlink:href="#DejaVuSans-31" x="127.246094"/>
      </g>
     </g>
    </g>
    <g id="ytick_6">
     <g id="line2d_13">
      <g>
       <use xlink:href="#m068b796579" x="151.2" y="126.78539" style="stroke: #000000; stroke-width: 0.8"/>
      </g>
     </g>
     <g id="text_14">
      <!-- 152 -->
      <g transform="translate(125.1125 130.584609) scale(0.1 -0.1)">
       <use xlink:href="#DejaVuSans-31"/>
       <use xlink:href="#DejaVuSans-35" x="63.623047"/>
       <use xlink:href="#DejaVuSans-32" x="127.246094"/>
      </g>
     </g>
    </g>
    <g id="text_15">
     <!-- Objective Function Value -->
     <g transform="translate(119.032813 413.485575) rotate(-90) scale(0.1 -0.1)">
      <defs>
       <path id="DejaVuSans-4f" d="M 2522 4238 
Q 1834 4238 1429 3725 
Q 1025 3213 1025 2328 
Q 1025 1447 1429 934 
Q 1834 422 2522 422 
Q 3209 422 3611 934 
Q 4013 1447 4013 2328 
Q 4013 3213 3611 3725 
Q 3209 4238 2522 4238 
z
M 2522 4750 
Q 3503 4750 4090 4092 
Q 4678 3434 4678 2328 
Q 4678 1225 4090 567 
Q 3503 -91 2522 -91 
Q 1538 -91 948 565 
Q 359 1222 359 2328 
Q 359 3434 948 4092 
Q 1538 4750 2522 4750 
z
" transform="scale(0.015625)"/>
       <path id="DejaVuSans-62" d="M 3116 1747 
Q 3116 2381 2855 2742 
Q 2594 3103 2138 3103 
Q 1681 3103 1420 2742 
Q 1159 2381 1159 1747 
Q 1159 1113 1420 752 
Q 1681 391 2138 391 
Q 2594 391 2855 752 
Q 3116 1113 3116 1747 
z
M 1159 2969 
Q 1341 3281 1617 3432 
Q 1894 3584 2278 3584 
Q 2916 3584 3314 3078 
Q 3713 2572 3713 1747 
Q 3713 922 3314 415 
Q 2916 -91 2278 -91 
Q 1894 -91 1617 61 
Q 1341 213 1159 525 
L 1159 0 
L 581 0 
L 581 4863 
L 1159 4863 
L 1159 2969 
z
" transform="scale(0.015625)"/>
       <path id="DejaVuSans-6a" d="M 603 3500 
L 1178 3500 
L 1178 -63 
Q 1178 -731 923 -1031 
Q 669 -1331 103 -1331 
L -116 -1331 
L -116 -844 
L 38 -844 
Q 366 -844 484 -692 
Q 603 -541 603 -63 
L 603 3500 
z
M 603 4863 
L 1178 4863 
L 1178 4134 
L 603 4134 
L 603 4863 
z
" transform="scale(0.015625)"/>
       <path id="DejaVuSans-74" d="M 1172 4494 
L 1172 3500 
L 2356 3500 
L 2356 3053 
L 1172 3053 
L 1172 1153 
Q 1172 725 1289 603 
Q 1406 481 1766 481 
L 2356 481 
L 2356 0 
L 1766 0 
Q 1100 0 847 248 
Q 594 497 594 1153 
L 594 3053 
L 172 3053 
L 172 3500 
L 594 3500 
L 594 4494 
L 1172 4494 
z
" transform="scale(0.015625)"/>
       <path id="DejaVuSans-46" d="M 628 4666 
L 3309 4666 
L 3309 4134 
L 1259 4134 
L 1259 2759 
L 3109 2759 
L 3109 2228 
L 1259 2228 
L 1259 0 
L 628 0 
L 628 4666 
z
" transform="scale(0.015625)"/>
       <path id="DejaVuSans-75" d="M 544 1381 
L 544 3500 
L 1119 3500 
L 1119 1403 
Q 1119 906 1312 657 
Q 1506 409 1894 409 
Q 2359 409 2629 706 
Q 2900 1003 2900 1516 
L 2900 3500 
L 3475 3500 
L 3475 0 
L 2900 0 
L 2900 538 
Q 2691 219 2414 64 
Q 2138 -91 1772 -91 
Q 1169 -91 856 284 
Q 544 659 544 1381 
z
M 1991 3584 
L 1991 3584 
z
" transform="scale(0.015625)"/>
       <path id="DejaVuSans-6e" d="M 3513 2113 
L 3513 0 
L 2938 0 
L 2938 2094 
Q 2938 2591 2744 2837 
Q 2550 3084 2163 3084 
Q 1697 3084 1428 2787 
Q 1159 2491 1159 1978 
L 1159 0 
L 581 0 
L 581 3500 
L 1159 3500 
L 1159 2956 
Q 1366 3272 1645 3428 
Q 1925 3584 2291 3584 
Q 2894 3584 3203 3211 
Q 3513 2838 3513 2113 
z
" transform="scale(0.015625)"/>
       <path id="DejaVuSans-56" d="M 1831 0 
L 50 4666 
L 709 4666 
L 2188 738 
L 3669 4666 
L 4325 4666 
L 2547 0 
L 1831 0 
z
" transform="scale(0.015625)"/>
       <path id="DejaVuSans-61" d="M 2194 1759 
Q 1497 1759 1228 1600 
Q 959 1441 959 1056 
Q 959 750 1161 570 
Q 1363 391 1709 391 
Q 2188 391 2477 730 
Q 2766 1069 2766 1631 
L 2766 1759 
L 2194 1759 
z
M 3341 1997 
L 3341 0 
L 2766 0 
L 2766 531 
Q 2569 213 2275 61 
Q 1981 -91 1556 -91 
Q 1019 -91 701 211 
Q 384 513 384 1019 
Q 384 1609 779 1909 
Q 1175 2209 1959 2209 
L 2766 2209 
L 2766 2266 
Q 2766 2663 2505 2880 
Q 2244 3097 1772 3097 
Q 1472 3097 1187 3025 
Q 903 2953 641 2809 
L 641 3341 
Q 956 3463 1253 3523 
Q 1550 3584 1831 3584 
Q 2591 3584 2966 3190 
Q 3341 2797 3341 1997 
z
" transform="scale(0.015625)"/>
      </defs>
      <use xlink:href="#DejaVuSans-4f"/>
      <use xlink:href="#DejaVuSans-62" x="78.710938"/>
      <use xlink:href="#DejaVuSans-6a" x="142.1875"/>
      <use xlink:href="#DejaVuSans-65" x="169.970703"/>
      <use xlink:href="#DejaVuSans-63" x="231.494141"/>
      <use xlink:href="#DejaVuSans-74" x="286.474609"/>
      <use xlink:href="#DejaVuSans-69" x="325.683594"/>
      <use xlink:href="#DejaVuSans-76" x="353.466797"/>
      <use xlink:href="#DejaVuSans-65" x="412.646484"/>
      <use xlink:href="#DejaVuSans-20" x="474.169922"/>
      <use xlink:href="#DejaVuSans-46" x="505.957031"/>
      <use xlink:href="#DejaVuSans-75" x="557.976562"/>
      <use xlink:href="#DejaVuSans-6e" x="621.355469"/>
      <use xlink:href="#DejaVuSans-63" x="684.734375"/>
      <use xlink:href="#DejaVuSans-74" x="739.714844"/>
      <use xlink:href="#DejaVuSans-69" x="778.923828"/>
      <use xlink:href="#DejaVuSans-6f" x="806.707031"/>
      <use xlink:href="#DejaVuSans-6e" x="867.888672"/>
      <use xlink:href="#DejaVuSans-20" x="931.267578"/>
      <use xlink:href="#DejaVuSans-56" x="963.054688"/>
      <use xlink:href="#DejaVuSans-61" x="1023.712891"/>
      <use xlink:href="#DejaVuSans-6c" x="1084.992188"/>
      <use xlink:href="#DejaVuSans-75" x="1112.775391"/>
      <use xlink:href="#DejaVuSans-65" x="1176.154297"/>
     </g>
    </g>
   </g>
   <g id="line2d_14">
    <path d="M 193.810909 107.9172 
L 193.84899 107.9172 
L 275.850151 478.390238 
L 306.533097 489.719587 
L 339.478595 489.719587 
L 356.903354 511.361962 
L 357.914022 511.361962 
L 382.375241 518.758751 
L 422.485946 518.758751 
L 493.29901 554.707572 
L 495.601602 554.707572 
L 495.635083 556.581852 
L 520.555792 556.663631 
L 539.874829 563.02151 
L 541.261728 564.432571 
L 570.321225 564.515172 
L 580.026296 572.904121 
L 729.013079 572.904121 
L 735.268403 578.279324 
L 739.613297 578.279324 
L 750.926954 585.955854 
L 771.963739 585.955854 
L 772.119247 589.930171 
L 775.451967 590.786315 
L 776.605363 590.786315 
L 787.022285 591.480989 
L 788.181857 593.020826 
L 802.998152 593.139004 
L 804.977843 594.913896 
L 964.753056 594.938479 
L 1046.029091 595.2852 
L 1046.029091 595.2852 
" clip-path="url(#p197c2a87a9)" style="fill: none; stroke: #000000; stroke-width: 1.5; stroke-linecap: square"/>
    <defs>
     <path id="m4d048cf501" d="M 0 -3 
L -0.673542 -0.927051 
L -2.85317 -0.927051 
L -1.089814 0.354102 
L -1.763356 2.427051 
L -0 1.145898 
L 1.763356 2.427051 
L 1.089814 0.354102 
L 2.85317 -0.927051 
L 0.673542 -0.927051 
z
" style="stroke: #000000; stroke-linejoin: bevel"/>
    </defs>
    <g clip-path="url(#p197c2a87a9)">
     <use xlink:href="#m4d048cf501" x="193.810909" y="107.9172" style="stroke: #000000; stroke-linejoin: bevel"/>
     <use xlink:href="#m4d048cf501" x="193.831189" y="107.9172" style="stroke: #000000; stroke-linejoin: bevel"/>
     <use xlink:href="#m4d048cf501" x="193.84899" y="107.9172" style="stroke: #000000; stroke-linejoin: bevel"/>
     <use xlink:href="#m4d048cf501" x="275.850151" y="478.390238" style="stroke: #000000; stroke-linejoin: bevel"/>
     <use xlink:href="#m4d048cf501" x="306.43771" y="489.719587" style="stroke: #000000; stroke-linejoin: bevel"/>
     <use xlink:href="#m4d048cf501" x="306.481599" y="489.719587" style="stroke: #000000; stroke-linejoin: bevel"/>
     <use xlink:href="#m4d048cf501" x="306.533097" y="489.719587" style="stroke: #000000; stroke-linejoin: bevel"/>
     <use xlink:href="#m4d048cf501" x="338.124503" y="489.719587" style="stroke: #000000; stroke-linejoin: bevel"/>
     <use xlink:href="#m4d048cf501" x="338.194993" y="489.719587" style="stroke: #000000; stroke-linejoin: bevel"/>
     <use xlink:href="#m4d048cf501" x="338.262053" y="489.719587" style="stroke: #000000; stroke-linejoin: bevel"/>
     <use xlink:href="#m4d048cf501" x="338.318127" y="489.719587" style="stroke: #000000; stroke-linejoin: bevel"/>
     <use xlink:href="#m4d048cf501" x="338.374771" y="489.719587" style="stroke: #000000; stroke-linejoin: bevel"/>
     <use xlink:href="#m4d048cf501" x="338.414829" y="489.719587" style="stroke: #000000; stroke-linejoin: bevel"/>
     <use xlink:href="#m4d048cf501" x="338.434208" y="489.719587" style="stroke: #000000; stroke-linejoin: bevel"/>
     <use xlink:href="#m4d048cf501" x="339.434373" y="489.719587" style="stroke: #000000; stroke-linejoin: bevel"/>
     <use xlink:href="#m4d048cf501" x="339.465382" y="489.719587" style="stroke: #000000; stroke-linejoin: bevel"/>
     <use xlink:href="#m4d048cf501" x="339.478595" y="489.719587" style="stroke: #000000; stroke-linejoin: bevel"/>
     <use xlink:href="#m4d048cf501" x="356.903354" y="511.361962" style="stroke: #000000; stroke-linejoin: bevel"/>
     <use xlink:href="#m4d048cf501" x="357.914022" y="511.361962" style="stroke: #000000; stroke-linejoin: bevel"/>
     <use xlink:href="#m4d048cf501" x="382.375241" y="518.758751" style="stroke: #000000; stroke-linejoin: bevel"/>
     <use xlink:href="#m4d048cf501" x="421.383161" y="518.758751" style="stroke: #000000; stroke-linejoin: bevel"/>
     <use xlink:href="#m4d048cf501" x="421.417438" y="518.758751" style="stroke: #000000; stroke-linejoin: bevel"/>
     <use xlink:href="#m4d048cf501" x="421.453626" y="518.758751" style="stroke: #000000; stroke-linejoin: bevel"/>
     <use xlink:href="#m4d048cf501" x="421.490222" y="518.758751" style="stroke: #000000; stroke-linejoin: bevel"/>
     <use xlink:href="#m4d048cf501" x="422.485946" y="518.758751" style="stroke: #000000; stroke-linejoin: bevel"/>
     <use xlink:href="#m4d048cf501" x="493.250589" y="554.707572" style="stroke: #000000; stroke-linejoin: bevel"/>
     <use xlink:href="#m4d048cf501" x="493.29901" y="554.707572" style="stroke: #000000; stroke-linejoin: bevel"/>
     <use xlink:href="#m4d048cf501" x="494.447435" y="554.707572" style="stroke: #000000; stroke-linejoin: bevel"/>
     <use xlink:href="#m4d048cf501" x="494.485639" y="554.707572" style="stroke: #000000; stroke-linejoin: bevel"/>
     <use xlink:href="#m4d048cf501" x="494.528602" y="554.707572" style="stroke: #000000; stroke-linejoin: bevel"/>
     <use xlink:href="#m4d048cf501" x="495.580281" y="554.707572" style="stroke: #000000; stroke-linejoin: bevel"/>
     <use xlink:href="#m4d048cf501" x="495.601602" y="554.707572" style="stroke: #000000; stroke-linejoin: bevel"/>
     <use xlink:href="#m4d048cf501" x="495.619452" y="556.581852" style="stroke: #000000; stroke-linejoin: bevel"/>
     <use xlink:href="#m4d048cf501" x="495.635083" y="556.581852" style="stroke: #000000; stroke-linejoin: bevel"/>
     <use xlink:href="#m4d048cf501" x="510.635562" y="556.581852" style="stroke: #000000; stroke-linejoin: bevel"/>
     <use xlink:href="#m4d048cf501" x="510.669606" y="556.581852" style="stroke: #000000; stroke-linejoin: bevel"/>
     <use xlink:href="#m4d048cf501" x="510.709457" y="556.581852" style="stroke: #000000; stroke-linejoin: bevel"/>
     <use xlink:href="#m4d048cf501" x="513.867069" y="556.663631" style="stroke: #000000; stroke-linejoin: bevel"/>
     <use xlink:href="#m4d048cf501" x="517.231064" y="556.663631" style="stroke: #000000; stroke-linejoin: bevel"/>
     <use xlink:href="#m4d048cf501" x="517.243449" y="556.663631" style="stroke: #000000; stroke-linejoin: bevel"/>
     <use xlink:href="#m4d048cf501" x="517.256794" y="556.663631" style="stroke: #000000; stroke-linejoin: bevel"/>
     <use xlink:href="#m4d048cf501" x="517.270945" y="556.663631" style="stroke: #000000; stroke-linejoin: bevel"/>
     <use xlink:href="#m4d048cf501" x="517.291122" y="556.663631" style="stroke: #000000; stroke-linejoin: bevel"/>
     <use xlink:href="#m4d048cf501" x="518.350868" y="556.663631" style="stroke: #000000; stroke-linejoin: bevel"/>
     <use xlink:href="#m4d048cf501" x="519.403033" y="556.663631" style="stroke: #000000; stroke-linejoin: bevel"/>
     <use xlink:href="#m4d048cf501" x="520.541966" y="556.663631" style="stroke: #000000; stroke-linejoin: bevel"/>
     <use xlink:href="#m4d048cf501" x="520.555792" y="556.663631" style="stroke: #000000; stroke-linejoin: bevel"/>
     <use xlink:href="#m4d048cf501" x="539.844376" y="563.02151" style="stroke: #000000; stroke-linejoin: bevel"/>
     <use xlink:href="#m4d048cf501" x="539.874829" y="563.02151" style="stroke: #000000; stroke-linejoin: bevel"/>
     <use xlink:href="#m4d048cf501" x="541.151962" y="564.432571" style="stroke: #000000; stroke-linejoin: bevel"/>
     <use xlink:href="#m4d048cf501" x="541.165276" y="564.432571" style="stroke: #000000; stroke-linejoin: bevel"/>
     <use xlink:href="#m4d048cf501" x="541.184153" y="564.432571" style="stroke: #000000; stroke-linejoin: bevel"/>
     <use xlink:href="#m4d048cf501" x="541.217348" y="564.432571" style="stroke: #000000; stroke-linejoin: bevel"/>
     <use xlink:href="#m4d048cf501" x="541.232707" y="564.432571" style="stroke: #000000; stroke-linejoin: bevel"/>
     <use xlink:href="#m4d048cf501" x="541.248816" y="564.432571" style="stroke: #000000; stroke-linejoin: bevel"/>
     <use xlink:href="#m4d048cf501" x="541.261728" y="564.432571" style="stroke: #000000; stroke-linejoin: bevel"/>
     <use xlink:href="#m4d048cf501" x="541.313144" y="564.432571" style="stroke: #000000; stroke-linejoin: bevel"/>
     <use xlink:href="#m4d048cf501" x="541.358602" y="564.432571" style="stroke: #000000; stroke-linejoin: bevel"/>
     <use xlink:href="#m4d048cf501" x="570.258697" y="564.515172" style="stroke: #000000; stroke-linejoin: bevel"/>
     <use xlink:href="#m4d048cf501" x="570.272022" y="564.515172" style="stroke: #000000; stroke-linejoin: bevel"/>
     <use xlink:href="#m4d048cf501" x="570.288768" y="564.515172" style="stroke: #000000; stroke-linejoin: bevel"/>
     <use xlink:href="#m4d048cf501" x="570.304972" y="564.515172" style="stroke: #000000; stroke-linejoin: bevel"/>
     <use xlink:href="#m4d048cf501" x="570.321225" y="564.515172" style="stroke: #000000; stroke-linejoin: bevel"/>
     <use xlink:href="#m4d048cf501" x="579.952324" y="572.904121" style="stroke: #000000; stroke-linejoin: bevel"/>
     <use xlink:href="#m4d048cf501" x="580.026296" y="572.904121" style="stroke: #000000; stroke-linejoin: bevel"/>
     <use xlink:href="#m4d048cf501" x="586.555332" y="572.904121" style="stroke: #000000; stroke-linejoin: bevel"/>
     <use xlink:href="#m4d048cf501" x="586.641289" y="572.904121" style="stroke: #000000; stroke-linejoin: bevel"/>
     <use xlink:href="#m4d048cf501" x="586.715929" y="572.904121" style="stroke: #000000; stroke-linejoin: bevel"/>
     <use xlink:href="#m4d048cf501" x="645.497535" y="572.904121" style="stroke: #000000; stroke-linejoin: bevel"/>
     <use xlink:href="#m4d048cf501" x="646.55526" y="572.904121" style="stroke: #000000; stroke-linejoin: bevel"/>
     <use xlink:href="#m4d048cf501" x="646.569193" y="572.904121" style="stroke: #000000; stroke-linejoin: bevel"/>
     <use xlink:href="#m4d048cf501" x="646.581789" y="572.904121" style="stroke: #000000; stroke-linejoin: bevel"/>
     <use xlink:href="#m4d048cf501" x="647.639144" y="572.904121" style="stroke: #000000; stroke-linejoin: bevel"/>
     <use xlink:href="#m4d048cf501" x="647.653556" y="572.904121" style="stroke: #000000; stroke-linejoin: bevel"/>
     <use xlink:href="#m4d048cf501" x="647.667298" y="572.904121" style="stroke: #000000; stroke-linejoin: bevel"/>
     <use xlink:href="#m4d048cf501" x="647.683595" y="572.904121" style="stroke: #000000; stroke-linejoin: bevel"/>
     <use xlink:href="#m4d048cf501" x="729.013079" y="572.904121" style="stroke: #000000; stroke-linejoin: bevel"/>
     <use xlink:href="#m4d048cf501" x="735.268403" y="578.279324" style="stroke: #000000; stroke-linejoin: bevel"/>
     <use xlink:href="#m4d048cf501" x="736.314423" y="578.279324" style="stroke: #000000; stroke-linejoin: bevel"/>
     <use xlink:href="#m4d048cf501" x="736.344972" y="578.279324" style="stroke: #000000; stroke-linejoin: bevel"/>
     <use xlink:href="#m4d048cf501" x="736.372899" y="578.279324" style="stroke: #000000; stroke-linejoin: bevel"/>
     <use xlink:href="#m4d048cf501" x="736.400896" y="578.279324" style="stroke: #000000; stroke-linejoin: bevel"/>
     <use xlink:href="#m4d048cf501" x="736.428234" y="578.279324" style="stroke: #000000; stroke-linejoin: bevel"/>
     <use xlink:href="#m4d048cf501" x="736.441881" y="578.279324" style="stroke: #000000; stroke-linejoin: bevel"/>
     <use xlink:href="#m4d048cf501" x="737.485764" y="578.279324" style="stroke: #000000; stroke-linejoin: bevel"/>
     <use xlink:href="#m4d048cf501" x="738.550749" y="578.279324" style="stroke: #000000; stroke-linejoin: bevel"/>
     <use xlink:href="#m4d048cf501" x="739.598736" y="578.279324" style="stroke: #000000; stroke-linejoin: bevel"/>
     <use xlink:href="#m4d048cf501" x="739.613297" y="578.279324" style="stroke: #000000; stroke-linejoin: bevel"/>
     <use xlink:href="#m4d048cf501" x="750.819062" y="585.955854" style="stroke: #000000; stroke-linejoin: bevel"/>
     <use xlink:href="#m4d048cf501" x="750.851399" y="585.955854" style="stroke: #000000; stroke-linejoin: bevel"/>
     <use xlink:href="#m4d048cf501" x="750.899274" y="585.955854" style="stroke: #000000; stroke-linejoin: bevel"/>
     <use xlink:href="#m4d048cf501" x="750.926954" y="585.955854" style="stroke: #000000; stroke-linejoin: bevel"/>
     <use xlink:href="#m4d048cf501" x="771.963739" y="585.955854" style="stroke: #000000; stroke-linejoin: bevel"/>
     <use xlink:href="#m4d048cf501" x="772.009514" y="589.930171" style="stroke: #000000; stroke-linejoin: bevel"/>
     <use xlink:href="#m4d048cf501" x="772.052809" y="589.930171" style="stroke: #000000; stroke-linejoin: bevel"/>
     <use xlink:href="#m4d048cf501" x="772.068431" y="589.930171" style="stroke: #000000; stroke-linejoin: bevel"/>
     <use xlink:href="#m4d048cf501" x="772.095079" y="589.930171" style="stroke: #000000; stroke-linejoin: bevel"/>
     <use xlink:href="#m4d048cf501" x="772.119247" y="589.930171" style="stroke: #000000; stroke-linejoin: bevel"/>
     <use xlink:href="#m4d048cf501" x="775.098343" y="590.786315" style="stroke: #000000; stroke-linejoin: bevel"/>
     <use xlink:href="#m4d048cf501" x="775.122431" y="590.786315" style="stroke: #000000; stroke-linejoin: bevel"/>
     <use xlink:href="#m4d048cf501" x="775.166831" y="590.786315" style="stroke: #000000; stroke-linejoin: bevel"/>
     <use xlink:href="#m4d048cf501" x="775.2174" y="590.786315" style="stroke: #000000; stroke-linejoin: bevel"/>
     <use xlink:href="#m4d048cf501" x="775.265814" y="590.786315" style="stroke: #000000; stroke-linejoin: bevel"/>
     <use xlink:href="#m4d048cf501" x="775.309054" y="590.786315" style="stroke: #000000; stroke-linejoin: bevel"/>
     <use xlink:href="#m4d048cf501" x="775.359498" y="590.786315" style="stroke: #000000; stroke-linejoin: bevel"/>
     <use xlink:href="#m4d048cf501" x="775.409285" y="590.786315" style="stroke: #000000; stroke-linejoin: bevel"/>
     <use xlink:href="#m4d048cf501" x="775.451967" y="590.786315" style="stroke: #000000; stroke-linejoin: bevel"/>
     <use xlink:href="#m4d048cf501" x="775.504709" y="590.786315" style="stroke: #000000; stroke-linejoin: bevel"/>
     <use xlink:href="#m4d048cf501" x="775.528296" y="590.786315" style="stroke: #000000; stroke-linejoin: bevel"/>
     <use xlink:href="#m4d048cf501" x="775.547016" y="590.786315" style="stroke: #000000; stroke-linejoin: bevel"/>
     <use xlink:href="#m4d048cf501" x="776.605363" y="590.786315" style="stroke: #000000; stroke-linejoin: bevel"/>
     <use xlink:href="#m4d048cf501" x="787.022285" y="591.480989" style="stroke: #000000; stroke-linejoin: bevel"/>
     <use xlink:href="#m4d048cf501" x="788.154204" y="593.020826" style="stroke: #000000; stroke-linejoin: bevel"/>
     <use xlink:href="#m4d048cf501" x="788.168043" y="593.020826" style="stroke: #000000; stroke-linejoin: bevel"/>
     <use xlink:href="#m4d048cf501" x="788.181857" y="593.020826" style="stroke: #000000; stroke-linejoin: bevel"/>
     <use xlink:href="#m4d048cf501" x="801.919829" y="593.085144" style="stroke: #000000; stroke-linejoin: bevel"/>
     <use xlink:href="#m4d048cf501" x="801.960631" y="593.085144" style="stroke: #000000; stroke-linejoin: bevel"/>
     <use xlink:href="#m4d048cf501" x="802.998152" y="593.139004" style="stroke: #000000; stroke-linejoin: bevel"/>
     <use xlink:href="#m4d048cf501" x="804.950187" y="594.913896" style="stroke: #000000; stroke-linejoin: bevel"/>
     <use xlink:href="#m4d048cf501" x="804.963896" y="594.913896" style="stroke: #000000; stroke-linejoin: bevel"/>
     <use xlink:href="#m4d048cf501" x="804.977843" y="594.913896" style="stroke: #000000; stroke-linejoin: bevel"/>
     <use xlink:href="#m4d048cf501" x="806.026356" y="594.913896" style="stroke: #000000; stroke-linejoin: bevel"/>
     <use xlink:href="#m4d048cf501" x="806.045062" y="594.913896" style="stroke: #000000; stroke-linejoin: bevel"/>
     <use xlink:href="#m4d048cf501" x="806.069781" y="594.913896" style="stroke: #000000; stroke-linejoin: bevel"/>
     <use xlink:href="#m4d048cf501" x="806.089911" y="594.913896" style="stroke: #000000; stroke-linejoin: bevel"/>
     <use xlink:href="#m4d048cf501" x="807.141389" y="594.913896" style="stroke: #000000; stroke-linejoin: bevel"/>
     <use xlink:href="#m4d048cf501" x="808.250912" y="594.938475" style="stroke: #000000; stroke-linejoin: bevel"/>
     <use xlink:href="#m4d048cf501" x="808.284427" y="594.938475" style="stroke: #000000; stroke-linejoin: bevel"/>
     <use xlink:href="#m4d048cf501" x="808.311499" y="594.938475" style="stroke: #000000; stroke-linejoin: bevel"/>
     <use xlink:href="#m4d048cf501" x="808.352163" y="594.938475" style="stroke: #000000; stroke-linejoin: bevel"/>
     <use xlink:href="#m4d048cf501" x="809.37977" y="594.938475" style="stroke: #000000; stroke-linejoin: bevel"/>
     <use xlink:href="#m4d048cf501" x="809.39479" y="594.938475" style="stroke: #000000; stroke-linejoin: bevel"/>
     <use xlink:href="#m4d048cf501" x="811.95227" y="594.938475" style="stroke: #000000; stroke-linejoin: bevel"/>
     <use xlink:href="#m4d048cf501" x="811.975796" y="594.938479" style="stroke: #000000; stroke-linejoin: bevel"/>
     <use xlink:href="#m4d048cf501" x="811.990082" y="594.938479" style="stroke: #000000; stroke-linejoin: bevel"/>
     <use xlink:href="#m4d048cf501" x="813.052622" y="594.938479" style="stroke: #000000; stroke-linejoin: bevel"/>
     <use xlink:href="#m4d048cf501" x="813.066798" y="594.938479" style="stroke: #000000; stroke-linejoin: bevel"/>
     <use xlink:href="#m4d048cf501" x="818.693003" y="594.938479" style="stroke: #000000; stroke-linejoin: bevel"/>
     <use xlink:href="#m4d048cf501" x="818.706583" y="594.938479" style="stroke: #000000; stroke-linejoin: bevel"/>
     <use xlink:href="#m4d048cf501" x="818.719152" y="594.938479" style="stroke: #000000; stroke-linejoin: bevel"/>
     <use xlink:href="#m4d048cf501" x="818.733843" y="594.938479" style="stroke: #000000; stroke-linejoin: bevel"/>
     <use xlink:href="#m4d048cf501" x="818.754892" y="594.938479" style="stroke: #000000; stroke-linejoin: bevel"/>
     <use xlink:href="#m4d048cf501" x="820.983313" y="594.938479" style="stroke: #000000; stroke-linejoin: bevel"/>
     <use xlink:href="#m4d048cf501" x="821.001618" y="594.938479" style="stroke: #000000; stroke-linejoin: bevel"/>
     <use xlink:href="#m4d048cf501" x="821.018023" y="594.938479" style="stroke: #000000; stroke-linejoin: bevel"/>
     <use xlink:href="#m4d048cf501" x="821.032343" y="594.938479" style="stroke: #000000; stroke-linejoin: bevel"/>
     <use xlink:href="#m4d048cf501" x="821.046098" y="594.938479" style="stroke: #000000; stroke-linejoin: bevel"/>
     <use xlink:href="#m4d048cf501" x="821.061149" y="594.938479" style="stroke: #000000; stroke-linejoin: bevel"/>
     <use xlink:href="#m4d048cf501" x="829.223732" y="594.938479" style="stroke: #000000; stroke-linejoin: bevel"/>
     <use xlink:href="#m4d048cf501" x="909.690705" y="594.938479" style="stroke: #000000; stroke-linejoin: bevel"/>
     <use xlink:href="#m4d048cf501" x="909.707851" y="594.938479" style="stroke: #000000; stroke-linejoin: bevel"/>
     <use xlink:href="#m4d048cf501" x="909.722344" y="594.938479" style="stroke: #000000; stroke-linejoin: bevel"/>
     <use xlink:href="#m4d048cf501" x="909.783065" y="594.938479" style="stroke: #000000; stroke-linejoin: bevel"/>
     <use xlink:href="#m4d048cf501" x="964.703133" y="594.938479" style="stroke: #000000; stroke-linejoin: bevel"/>
     <use xlink:href="#m4d048cf501" x="964.717152" y="594.938479" style="stroke: #000000; stroke-linejoin: bevel"/>
     <use xlink:href="#m4d048cf501" x="964.736137" y="594.938479" style="stroke: #000000; stroke-linejoin: bevel"/>
     <use xlink:href="#m4d048cf501" x="964.753056" y="594.938479" style="stroke: #000000; stroke-linejoin: bevel"/>
     <use xlink:href="#m4d048cf501" x="1046.029091" y="595.2852" style="stroke: #000000; stroke-linejoin: bevel"/>
    </g>
   </g>
   <g id="line2d_15">
    <path d="M 193.861774 107.9172 
L 276.342243 190.265276 
L 359.013058 227.662484 
L 441.650433 233.108821 
L 524.272414 240.667237 
L 606.880272 246.516373 
L 689.51701 258.921793 
L 772.187671 263.359482 
L 854.823177 267.436863 
L 937.45271 270.721372 
L 1020.023968 274.119477 
" clip-path="url(#p197c2a87a9)" style="fill: none; stroke: #bf00bf; stroke-width: 1.5; stroke-linecap: square"/>
    <defs>
     <path id="mccb333780b" d="M 0 -3 
L -0.673542 -0.927051 
L -2.85317 -0.927051 
L -1.089814 0.354102 
L -1.763356 2.427051 
L -0 1.145898 
L 1.763356 2.427051 
L 1.089814 0.354102 
L 2.85317 -0.927051 
L 0.673542 -0.927051 
z
" style="stroke: #bf00bf; stroke-linejoin: bevel"/>
    </defs>
    <g clip-path="url(#p197c2a87a9)">
     <use xlink:href="#mccb333780b" x="193.861774" y="107.9172" style="fill: #bf00bf; stroke: #bf00bf; stroke-linejoin: bevel"/>
     <use xlink:href="#mccb333780b" x="276.342243" y="190.265276" style="fill: #bf00bf; stroke: #bf00bf; stroke-linejoin: bevel"/>
     <use xlink:href="#mccb333780b" x="359.013058" y="227.662484" style="fill: #bf00bf; stroke: #bf00bf; stroke-linejoin: bevel"/>
     <use xlink:href="#mccb333780b" x="441.650433" y="233.108821" style="fill: #bf00bf; stroke: #bf00bf; stroke-linejoin: bevel"/>
     <use xlink:href="#mccb333780b" x="524.272414" y="240.667237" style="fill: #bf00bf; stroke: #bf00bf; stroke-linejoin: bevel"/>
     <use xlink:href="#mccb333780b" x="606.880272" y="246.516373" style="fill: #bf00bf; stroke: #bf00bf; stroke-linejoin: bevel"/>
     <use xlink:href="#mccb333780b" x="689.51701" y="258.921793" style="fill: #bf00bf; stroke: #bf00bf; stroke-linejoin: bevel"/>
     <use xlink:href="#mccb333780b" x="772.187671" y="263.359482" style="fill: #bf00bf; stroke: #bf00bf; stroke-linejoin: bevel"/>
     <use xlink:href="#mccb333780b" x="854.823177" y="267.436863" style="fill: #bf00bf; stroke: #bf00bf; stroke-linejoin: bevel"/>
     <use xlink:href="#mccb333780b" x="937.45271" y="270.721372" style="fill: #bf00bf; stroke: #bf00bf; stroke-linejoin: bevel"/>
     <use xlink:href="#mccb333780b" x="1020.023968" y="274.119477" style="fill: #bf00bf; stroke: #bf00bf; stroke-linejoin: bevel"/>
    </g>
   </g>
   <g id="patch_3">
    <path d="M 151.2 619.6536 
L 151.2 83.5488 
" style="fill: none; stroke: #000000; stroke-width: 0.8; stroke-linejoin: miter; stroke-linecap: square"/>
   </g>
   <g id="patch_4">
    <path d="M 1088.64 619.6536 
L 1088.64 83.5488 
" style="fill: none; stroke: #000000; stroke-width: 0.8; stroke-linejoin: miter; stroke-linecap: square"/>
   </g>
   <g id="patch_5">
    <path d="M 151.2 619.6536 
L 1088.64 619.6536 
" style="fill: none; stroke: #000000; stroke-width: 0.8; stroke-linejoin: miter; stroke-linecap: square"/>
   </g>
   <g id="patch_6">
    <path d="M 151.2 83.5488 
L 1088.64 83.5488 
" style="fill: none; stroke: #000000; stroke-width: 0.8; stroke-linejoin: miter; stroke-linecap: square"/>
   </g>
   <g id="text_16">
    <!-- Planner Results -->
    <g transform="translate(573.624375 77.5488) scale(0.12 -0.12)">
     <defs>
      <path id="DejaVuSans-50" d="M 1259 4147 
L 1259 2394 
L 2053 2394 
Q 2494 2394 2734 2622 
Q 2975 2850 2975 3272 
Q 2975 3691 2734 3919 
Q 2494 4147 2053 4147 
L 1259 4147 
z
M 628 4666 
L 2053 4666 
Q 2838 4666 3239 4311 
Q 3641 3956 3641 3272 
Q 3641 2581 3239 2228 
Q 2838 1875 2053 1875 
L 1259 1875 
L 1259 0 
L 628 0 
L 628 4666 
z
" transform="scale(0.015625)"/>
      <path id="DejaVuSans-72" d="M 2631 2963 
Q 2534 3019 2420 3045 
Q 2306 3072 2169 3072 
Q 1681 3072 1420 2755 
Q 1159 2438 1159 1844 
L 1159 0 
L 581 0 
L 581 3500 
L 1159 3500 
L 1159 2956 
Q 1341 3275 1631 3429 
Q 1922 3584 2338 3584 
Q 2397 3584 2469 3576 
Q 2541 3569 2628 3553 
L 2631 2963 
z
" transform="scale(0.015625)"/>
      <path id="DejaVuSans-52" d="M 2841 2188 
Q 3044 2119 3236 1894 
Q 3428 1669 3622 1275 
L 4263 0 
L 3584 0 
L 2988 1197 
Q 2756 1666 2539 1819 
Q 2322 1972 1947 1972 
L 1259 1972 
L 1259 0 
L 628 0 
L 628 4666 
L 2053 4666 
Q 2853 4666 3247 4331 
Q 3641 3997 3641 3322 
Q 3641 2881 3436 2590 
Q 3231 2300 2841 2188 
z
M 1259 4147 
L 1259 2491 
L 2053 2491 
Q 2509 2491 2742 2702 
Q 2975 2913 2975 3322 
Q 2975 3731 2742 3939 
Q 2509 4147 2053 4147 
L 1259 4147 
z
" transform="scale(0.015625)"/>
     </defs>
     <use xlink:href="#DejaVuSans-50"/>
     <use xlink:href="#DejaVuSans-6c" x="60.302734"/>
     <use xlink:href="#DejaVuSans-61" x="88.085938"/>
     <use xlink:href="#DejaVuSans-6e" x="149.365234"/>
     <use xlink:href="#DejaVuSans-6e" x="212.744141"/>
     <use xlink:href="#DejaVuSans-65" x="276.123047"/>
     <use xlink:href="#DejaVuSans-72" x="337.646484"/>
     <use xlink:href="#DejaVuSans-20" x="378.759766"/>
     <use xlink:href="#DejaVuSans-52" x="410.546875"/>
     <use xlink:href="#DejaVuSans-65" x="475.529297"/>
     <use xlink:href="#DejaVuSans-73" x="537.052734"/>
     <use xlink:href="#DejaVuSans-75" x="589.152344"/>
     <use xlink:href="#DejaVuSans-6c" x="652.53125"/>
     <use xlink:href="#DejaVuSans-74" x="680.314453"/>
     <use xlink:href="#DejaVuSans-73" x="719.523438"/>
    </g>
   </g>
   <g id="legend_1">
    <g id="patch_7">
     <path d="M 820.030625 120.90505 
L 1081.64 120.90505 
Q 1083.64 120.90505 1083.64 118.90505 
L 1083.64 90.5488 
Q 1083.64 88.5488 1081.64 88.5488 
L 820.030625 88.5488 
Q 818.030625 88.5488 818.030625 90.5488 
L 818.030625 118.90505 
Q 818.030625 120.90505 820.030625 120.90505 
z
" style="fill: #ffffff; opacity: 0.8; stroke: #cccccc; stroke-linejoin: miter"/>
    </g>
    <g id="line2d_16">
     <path d="M 822.030625 96.647238 
L 832.030625 96.647238 
L 842.030625 96.647238 
" style="fill: none; stroke: #000000; stroke-width: 1.5; stroke-linecap: square"/>
     <g>
      <use xlink:href="#m4d048cf501" x="832.030625" y="96.647238" style="stroke: #000000; stroke-linejoin: bevel"/>
     </g>
    </g>
    <g id="text_17">
     <!-- Hybrid Firefly Planner -->
     <g transform="translate(850.030625 100.147238) scale(0.1 -0.1)">
      <defs>
       <path id="DejaVuSans-48" d="M 628 4666 
L 1259 4666 
L 1259 2753 
L 3553 2753 
L 3553 4666 
L 4184 4666 
L 4184 0 
L 3553 0 
L 3553 2222 
L 1259 2222 
L 1259 0 
L 628 0 
L 628 4666 
z
" transform="scale(0.015625)"/>
       <path id="DejaVuSans-79" d="M 2059 -325 
Q 1816 -950 1584 -1140 
Q 1353 -1331 966 -1331 
L 506 -1331 
L 506 -850 
L 844 -850 
Q 1081 -850 1212 -737 
Q 1344 -625 1503 -206 
L 1606 56 
L 191 3500 
L 800 3500 
L 1894 763 
L 2988 3500 
L 3597 3500 
L 2059 -325 
z
" transform="scale(0.015625)"/>
       <path id="DejaVuSans-64" d="M 2906 2969 
L 2906 4863 
L 3481 4863 
L 3481 0 
L 2906 0 
L 2906 525 
Q 2725 213 2448 61 
Q 2172 -91 1784 -91 
Q 1150 -91 751 415 
Q 353 922 353 1747 
Q 353 2572 751 3078 
Q 1150 3584 1784 3584 
Q 2172 3584 2448 3432 
Q 2725 3281 2906 2969 
z
M 947 1747 
Q 947 1113 1208 752 
Q 1469 391 1925 391 
Q 2381 391 2643 752 
Q 2906 1113 2906 1747 
Q 2906 2381 2643 2742 
Q 2381 3103 1925 3103 
Q 1469 3103 1208 2742 
Q 947 2381 947 1747 
z
" transform="scale(0.015625)"/>
       <path id="DejaVuSans-66" d="M 2375 4863 
L 2375 4384 
L 1825 4384 
Q 1516 4384 1395 4259 
Q 1275 4134 1275 3809 
L 1275 3500 
L 2222 3500 
L 2222 3053 
L 1275 3053 
L 1275 0 
L 697 0 
L 697 3053 
L 147 3053 
L 147 3500 
L 697 3500 
L 697 3744 
Q 697 4328 969 4595 
Q 1241 4863 1831 4863 
L 2375 4863 
z
" transform="scale(0.015625)"/>
      </defs>
      <use xlink:href="#DejaVuSans-48"/>
      <use xlink:href="#DejaVuSans-79" x="75.195312"/>
      <use xlink:href="#DejaVuSans-62" x="134.375"/>
      <use xlink:href="#DejaVuSans-72" x="197.851562"/>
      <use xlink:href="#DejaVuSans-69" x="238.964844"/>
      <use xlink:href="#DejaVuSans-64" x="266.748047"/>
      <use xlink:href="#DejaVuSans-20" x="330.224609"/>
      <use xlink:href="#DejaVuSans-46" x="362.011719"/>
      <use xlink:href="#DejaVuSans-69" x="412.28125"/>
      <use xlink:href="#DejaVuSans-72" x="440.064453"/>
      <use xlink:href="#DejaVuSans-65" x="478.927734"/>
      <use xlink:href="#DejaVuSans-66" x="540.451172"/>
      <use xlink:href="#DejaVuSans-6c" x="575.65625"/>
      <use xlink:href="#DejaVuSans-79" x="603.439453"/>
      <use xlink:href="#DejaVuSans-20" x="662.619141"/>
      <use xlink:href="#DejaVuSans-50" x="694.40625"/>
      <use xlink:href="#DejaVuSans-6c" x="754.708984"/>
      <use xlink:href="#DejaVuSans-61" x="782.492188"/>
      <use xlink:href="#DejaVuSans-6e" x="843.771484"/>
      <use xlink:href="#DejaVuSans-6e" x="907.150391"/>
      <use xlink:href="#DejaVuSans-65" x="970.529297"/>
      <use xlink:href="#DejaVuSans-72" x="1032.052734"/>
     </g>
    </g>
    <g id="line2d_17">
     <path d="M 822.030625 111.325363 
L 832.030625 111.325363 
L 842.030625 111.325363 
" style="fill: none; stroke: #bf00bf; stroke-width: 1.5; stroke-linecap: square"/>
     <g>
      <use xlink:href="#mccb333780b" x="832.030625" y="111.325363" style="fill: #bf00bf; stroke: #bf00bf; stroke-linejoin: bevel"/>
     </g>
    </g>
    <g id="text_18">
     <!-- Hybrid Population-Based Simulated Annealing -->
     <g transform="translate(850.030625 114.825363) scale(0.1 -0.1)">
      <defs>
       <path id="DejaVuSans-70" d="M 1159 525 
L 1159 -1331 
L 581 -1331 
L 581 3500 
L 1159 3500 
L 1159 2969 
Q 1341 3281 1617 3432 
Q 1894 3584 2278 3584 
Q 2916 3584 3314 3078 
Q 3713 2572 3713 1747 
Q 3713 922 3314 415 
Q 2916 -91 2278 -91 
Q 1894 -91 1617 61 
Q 1341 213 1159 525 
z
M 3116 1747 
Q 3116 2381 2855 2742 
Q 2594 3103 2138 3103 
Q 1681 3103 1420 2742 
Q 1159 2381 1159 1747 
Q 1159 1113 1420 752 
Q 1681 391 2138 391 
Q 2594 391 2855 752 
Q 3116 1113 3116 1747 
z
" transform="scale(0.015625)"/>
       <path id="DejaVuSans-2d" d="M 313 2009 
L 1997 2009 
L 1997 1497 
L 313 1497 
L 313 2009 
z
" transform="scale(0.015625)"/>
       <path id="DejaVuSans-42" d="M 1259 2228 
L 1259 519 
L 2272 519 
Q 2781 519 3026 730 
Q 3272 941 3272 1375 
Q 3272 1813 3026 2020 
Q 2781 2228 2272 2228 
L 1259 2228 
z
M 1259 4147 
L 1259 2741 
L 2194 2741 
Q 2656 2741 2882 2914 
Q 3109 3088 3109 3444 
Q 3109 3797 2882 3972 
Q 2656 4147 2194 4147 
L 1259 4147 
z
M 628 4666 
L 2241 4666 
Q 2963 4666 3353 4366 
Q 3744 4066 3744 3513 
Q 3744 3084 3544 2831 
Q 3344 2578 2956 2516 
Q 3422 2416 3680 2098 
Q 3938 1781 3938 1306 
Q 3938 681 3513 340 
Q 3088 0 2303 0 
L 628 0 
L 628 4666 
z
" transform="scale(0.015625)"/>
       <path id="DejaVuSans-41" d="M 2188 4044 
L 1331 1722 
L 3047 1722 
L 2188 4044 
z
M 1831 4666 
L 2547 4666 
L 4325 0 
L 3669 0 
L 3244 1197 
L 1141 1197 
L 716 0 
L 50 0 
L 1831 4666 
z
" transform="scale(0.015625)"/>
       <path id="DejaVuSans-67" d="M 2906 1791 
Q 2906 2416 2648 2759 
Q 2391 3103 1925 3103 
Q 1463 3103 1205 2759 
Q 947 2416 947 1791 
Q 947 1169 1205 825 
Q 1463 481 1925 481 
Q 2391 481 2648 825 
Q 2906 1169 2906 1791 
z
M 3481 434 
Q 3481 -459 3084 -895 
Q 2688 -1331 1869 -1331 
Q 1566 -1331 1297 -1286 
Q 1028 -1241 775 -1147 
L 775 -588 
Q 1028 -725 1275 -790 
Q 1522 -856 1778 -856 
Q 2344 -856 2625 -561 
Q 2906 -266 2906 331 
L 2906 616 
Q 2728 306 2450 153 
Q 2172 0 1784 0 
Q 1141 0 747 490 
Q 353 981 353 1791 
Q 353 2603 747 3093 
Q 1141 3584 1784 3584 
Q 2172 3584 2450 3431 
Q 2728 3278 2906 2969 
L 2906 3500 
L 3481 3500 
L 3481 434 
z
" transform="scale(0.015625)"/>
      </defs>
      <use xlink:href="#DejaVuSans-48"/>
      <use xlink:href="#DejaVuSans-79" x="75.195312"/>
      <use xlink:href="#DejaVuSans-62" x="134.375"/>
      <use xlink:href="#DejaVuSans-72" x="197.851562"/>
      <use xlink:href="#DejaVuSans-69" x="238.964844"/>
      <use xlink:href="#DejaVuSans-64" x="266.748047"/>
      <use xlink:href="#DejaVuSans-20" x="330.224609"/>
      <use xlink:href="#DejaVuSans-50" x="362.011719"/>
      <use xlink:href="#DejaVuSans-6f" x="418.689453"/>
      <use xlink:href="#DejaVuSans-70" x="479.871094"/>
      <use xlink:href="#DejaVuSans-75" x="543.347656"/>
      <use xlink:href="#DejaVuSans-6c" x="606.726562"/>
      <use xlink:href="#DejaVuSans-61" x="634.509766"/>
      <use xlink:href="#DejaVuSans-74" x="695.789062"/>
      <use xlink:href="#DejaVuSans-69" x="734.998047"/>
      <use xlink:href="#DejaVuSans-6f" x="762.78125"/>
      <use xlink:href="#DejaVuSans-6e" x="823.962891"/>
      <use xlink:href="#DejaVuSans-2d" x="887.341797"/>
      <use xlink:href="#DejaVuSans-42" x="919.800781"/>
      <use xlink:href="#DejaVuSans-61" x="988.404297"/>
      <use xlink:href="#DejaVuSans-73" x="1049.683594"/>
      <use xlink:href="#DejaVuSans-65" x="1101.783203"/>
      <use xlink:href="#DejaVuSans-64" x="1163.306641"/>
      <use xlink:href="#DejaVuSans-20" x="1226.783203"/>
      <use xlink:href="#DejaVuSans-53" x="1258.570312"/>
      <use xlink:href="#DejaVuSans-69" x="1322.046875"/>
      <use xlink:href="#DejaVuSans-6d" x="1349.830078"/>
      <use xlink:href="#DejaVuSans-75" x="1447.242188"/>
      <use xlink:href="#DejaVuSans-6c" x="1510.621094"/>
      <use xlink:href="#DejaVuSans-61" x="1538.404297"/>
      <use xlink:href="#DejaVuSans-74" x="1599.683594"/>
      <use xlink:href="#DejaVuSans-65" x="1638.892578"/>
      <use xlink:href="#DejaVuSans-64" x="1700.416016"/>
      <use xlink:href="#DejaVuSans-20" x="1763.892578"/>
      <use xlink:href="#DejaVuSans-41" x="1795.679688"/>
      <use xlink:href="#DejaVuSans-6e" x="1864.087891"/>
      <use xlink:href="#DejaVuSans-6e" x="1927.466797"/>
      <use xlink:href="#DejaVuSans-65" x="1990.845703"/>
      <use xlink:href="#DejaVuSans-61" x="2052.369141"/>
      <use xlink:href="#DejaVuSans-6c" x="2113.648438"/>
      <use xlink:href="#DejaVuSans-69" x="2141.431641"/>
      <use xlink:href="#DejaVuSans-6e" x="2169.214844"/>
      <use xlink:href="#DejaVuSans-67" x="2232.59375"/>
     </g>
    </g>
   </g>
  </g>
 </g>
 <defs>
  <clipPath id="p197c2a87a9">
   <rect x="151.2" y="83.5488" width="937.44" height="536.1048"/>
  </clipPath>
 </defs>
</svg>
